#!OML:ASF F:\VICON\USERDATA\INSTALL\Justin_Nancy\Justin_Nancy.ASF
:FULLY-SPECIFIED
:DEGREES
64
root -8.78445 16.9799 -15.5992 -4.25952 -8.92714 4.07772
lowerback 7.617 1.17164 -4.37302
upperback -0.112558 1.20245 0.735409
thorax -4.50142 0.702184 3.08748
lowerneck -15.935 -2.74253 -9.64443
upperneck 20.2986 -2.61753 5.62291
head 9.22103 -1.36423 3.2131
rclavicle -2.97556e-014 4.77083e-015
rhumerus -31.9406 -14.6943 -77.5112
rradius 30.6018
rwrist 10.5341
rhand -14.3339 12.8197
rfingers 7.12502
rthumb 11.8071 -16.8275
lclavicle -2.97556e-014 4.77083e-015
lhumerus -36.5844 10.9678 84.6239
lradius 22.6
lwrist -6.4495
lhand -16.6787 23.2875
lfingers 7.12502
lthumb 9.5454 53.0512
rfemur -18.2155 -0.86021 13.3162
rtibia 74.3946
rfoot -5.12875 -8.01558
rtoes 4.48241
lfemur -17.3646 -1.99355 -30.5899
ltibia 38.6524
lfoot -13.9476 -4.83137
ltoes 10.4503
65
root -8.7801 16.9722 -15.3677 -4.25147 -8.86344 4.29327
lowerback 7.52053 1.10758 -4.61638
upperback -0.0935728 1.09864 0.694514
thorax -4.42244 0.653642 3.19552
lowerneck -15.8248 -2.67095 -9.43717
upperneck 20.4802 -2.54404 5.43232
head 9.25205 -1.33881 3.1244
rclavicle 4.81432e-015 1.19271e-014
rhumerus -32.2402 -14.7881 -77.5921
rradius 30.3567
rwrist 10.5488
rhand -14.2623 12.5586
rfingers 7.12502
rthumb 11.8762 -17.0846
lclavicle 4.81432e-015 1.19271e-014
lhumerus -36.1011 10.5178 84.7011
lradius 23.1133
lwrist -6.44536
lhand -16.8215 22.7503
lfingers 7.12502
lthumb 9.40757 52.5203
rfemur -20.1258 -1.15004 13.2286
rtibia 73.9653
rfoot -6.441 -8.19189
rtoes 2.81085
lfemur -16.5088 -1.67899 -31.0372
ltibia 38.6227
lfoot -14.7032 -4.9507
ltoes 10.2742
66
root -8.77602 16.9523 -15.1358 -4.23847 -8.52278 4.67043
lowerback 7.48783 0.953965 -5.05538
upperback -0.0969377 0.855266 0.656859
thorax -4.39225 0.541676 3.4323
lowerneck -15.9034 -2.6201 -9.5224
upperneck 20.7811 -2.45834 5.46273
head 9.36577 -1.30595 3.16516
rclavicle -4.3422e-015 7.95139e-015
rhumerus -32.3215 -15.0248 -77.5003
rradius 29.6886
rwrist 10.7401
rhand -13.9378 12.8701
rfingers 7.12502
rthumb 12.189 -16.7548
lclavicle -4.3422e-015 7.95139e-015
lhumerus -35.7427 10.4154 84.5884
lradius 24.9381
lwrist -10.1189
lhand -9.78157 29.6565
lfingers 7.12502
lthumb 16.194 59.0001
rfemur -21.9312 -1.61812 12.9451
rtibia 73.352
rfoot -8.02764 -8.25359
rtoes 2.20164
lfemur -15.6948 -1.61893 -31.6784
ltibia 38.7089
lfoot -15.5091 -5.09635
ltoes 11.622
67
root -8.76861 16.9269 -14.9012 -4.29388 -8.04663 5.08477
lowerback 7.55099 0.76362 -5.4656
upperback -0.101083 0.558868 0.59445
thorax -4.40735 0.403631 3.63223
lowerneck -15.9736 -2.56445 -9.65132
upperneck 21.0532 -2.36709 5.54755
head 9.46885 -1.26794 3.23308
rclavicle -9.54788e-015 5.56597e-015
rhumerus -32.5986 -15.314 -77.3555
rradius 29.1925
rwrist 11.1218
rhand -13.6535 13.266
rfingers 7.12502
rthumb 12.4632 -16.3424
lclavicle -9.54788e-015 5.56597e-015
lhumerus -35.3291 9.34541 85.0852
lradius 25.5867
lwrist -7.9266
lhand -11.5389 28.8159
lfingers 7.12502
lthumb 14.5013 58.2891
rfemur -23.5924 -2.20493 12.6194
rtibia 72.5265
rfoot -9.21257 -8.47902
rtoes 2.04373
lfemur -14.7925 -1.69149 -32.3845
ltibia 38.814
lfoot -16.3575 -5.20905
ltoes 12.2347
68
root -8.76032 16.9084 -14.6679 -4.20414 -7.64955 5.08694
lowerback 7.55481 0.622959 -5.52474
upperback -0.136215 0.368234 0.662642
thorax -4.42742 0.312675 3.75883
lowerneck -15.8342 -2.54757 -9.68747
upperneck 21.0132 -2.36058 5.60219
head 9.42928 -1.26297 3.25867
rclavicle 1.27719e-014 1.59028e-015
rhumerus -33.0577 -15.3421 -77.3053
rradius 29.2125
rwrist 11.0102
rhand -13.7496 12.7324
rfingers 7.12502
rthumb 12.3705 -16.8816
lclavicle 1.27719e-014 1.59028e-015
lhumerus -34.8647 8.72666 85.3331
lradius 26.287
lwrist -7.2064
lhand -11.2042 29.6442
lfingers 7.12502
lthumb 14.8238 59.094
rfemur -25.228 -2.63467 12.8016
rtibia 71.3897
rfoot -9.88647 -8.92991
rtoes 1.21131
lfemur -14.0418 -1.90688 -32.6309
ltibia 38.8962
lfoot -17.2993 -4.92574
ltoes 10.7676
69
root -8.7516 16.889 -14.4354 -4.00111 -7.33892 5.28545
lowerback 7.43945 0.453911 -5.72511
upperback -0.190721 0.131293 0.667615
thorax -4.39518 0.200149 3.904
lowerneck -15.8857 -2.54016 -9.81925
upperneck 21.0136 -2.32368 5.65826
head 9.43838 -1.24959 3.30521
rclavicle 1.1368e-014 7.15625e-015
rhumerus -33.2474 -15.2828 -77.3748
rradius 29.0384
rwrist 10.8326
rhand -13.914 12.4513
rfingers 7.12502
rthumb 12.2121 -17.1722
lclavicle 1.1368e-014 7.15625e-015
lhumerus -34.4289 7.53291 85.966
lradius 26.2534
lwrist -2.21659
lhand -17.3712 24.4613
lfingers 7.12502
lthumb 8.87714 54.2546
rfemur -26.9435 -2.92856 12.7427
rtibia 70.0425
rfoot -10.2876 -9.47924
rtoes 0.670783
lfemur -13.4079 -2.24968 -33.099
ltibia 38.8695
lfoot -17.9942 -4.5038
ltoes 9.84707
70
root -8.74265 16.873 -14.1902 -3.83592 -7.04694 5.61558
lowerback 7.15599 0.294487 -6.04628
upperback -0.185485 -0.0922419 0.621099
thorax -4.2056 0.089904 4.05994
lowerneck -15.8341 -2.5266 -9.88447
upperneck 20.9104 -2.30031 5.69973
head 9.39203 -1.23839 3.33187
rclavicle -1.78689e-014 3.97569e-015
rhumerus -33.5364 -15.5246 -77.2166
rradius 28.6225
rwrist 10.9481
rhand -13.9928 13.7864
rfingers 7.12502
rthumb 12.136 -15.8416
lclavicle -1.78689e-014 3.97569e-015
lhumerus -34.0883 7.2095 85.8576
lradius 27.3613
lwrist -2.51712
lhand -15.3849 26.2615
lfingers 7.12502
lthumb 10.7935 55.9642
rfemur -28.4747 -3.17226 12.5186
rtibia 68.4543
rfoot -12.5512 -9.17265
rtoes -6.49244
lfemur -12.5095 -2.60731 -33.7396
ltibia 38.6442
lfoot -18.2833 -4.59441
ltoes 12.2381
71
root -8.73713 16.8651 -13.9463 -3.64894 -6.83245 5.79798
lowerback 6.92298 0.200965 -6.30671
upperback -0.220845 -0.222376 0.650198
thorax -4.09595 0.0285303 4.24986
lowerneck -15.6895 -2.50342 -9.86296
upperneck 20.8906 -2.25677 5.56598
head 9.35335 -1.23264 3.28642
rclavicle -2.17421e-015 1.19271e-014
rhumerus -34.037 -15.6878 -76.9877
rradius 28.3968
rwrist 10.9615
rhand -14.2141 15.2196
rfingers 7.12502
rthumb 11.9227 -14.4209
lclavicle -2.17421e-015 1.19271e-014
lhumerus -33.7693 6.45423 86.0623
lradius 27.7553
lwrist -0.2827
lhand -16.556 20.7629
lfingers 7.12502
lthumb 9.66379 50.5212
rfemur -29.9029 -3.12856 12.5005
rtibia 66.5543
rfoot -11.3878 -10.0955
rtoes -2.02355
lfemur -11.5129 -2.95435 -34.1958
ltibia 38.2085
lfoot -18.5791 -4.75339
ltoes 14.2084
72
root -8.72921 16.8625 -13.7088 -3.38993 -6.46683 6.15618
lowerback 6.77141 0.0205104 -6.73433
upperback -0.318466 -0.489456 0.658104
thorax -4.07826 -0.0929114 4.52616
lowerneck -15.7143 -2.46637 -10.0276
upperneck 20.9687 -2.1617 5.56684
head 9.37962 -1.2025 3.3278
rclavicle -1.01349e-014 1.03368e-014
rhumerus -34.4574 -15.1776 -77.0656
rradius 28.6821
rwrist 10.3354
rhand -13.7418 14.7123
rfingers 7.12502
rthumb 12.3781 -14.9012
lclavicle -1.01349e-014 1.03368e-014
lhumerus -33.4464 6.2939 85.9823
lradius 29.7118
lwrist -2.55067
lhand -11.1813 30.7348
lfingers 7.12502
lthumb 14.8459 60.183
rfemur -31.3055 -3.2286 12.2272
rtibia 64.339
rfoot -11.1577 -10.5867
rtoes -1.27444
lfemur -10.542 -3.52634 -34.8622
ltibia 37.5497
lfoot -18.9469 -4.49544
ltoes 14.1352
73
root -8.71961 16.869 -13.4718 -2.90229 -5.76574 6.39677
lowerback 6.50236 -0.229163 -6.89938
upperback -0.431487 -0.823465 0.541701
thorax -4.00185 -0.256178 4.52682
lowerneck -15.8136 -2.50689 -9.83626
upperneck 20.8242 -2.23453 5.48446
head 9.35044 -1.22636 3.25481
rclavicle 1.61311e-014 0
rhumerus -34.8807 -15.2053 -77.1747
rradius 29.0072
rwrist 10.0469
rhand -12.9766 14.2852
rfingers 7.12502
rthumb 13.1157 -15.2824
lclavicle 1.61311e-014 0
lhumerus -33.0151 5.8104 85.7671
lradius 30.402
lwrist -2.17831
lhand -11.186 29.1888
lfingers 7.12502
lthumb 14.8413 58.6373
rfemur -32.6815 -3.63817 12.0428
rtibia 61.7598
rfoot -10.5989 -11.0267
rtoes -1.24105
lfemur -9.70868 -4.18915 -35.3792
ltibia 36.7285
lfoot -19.2655 -4.36313
ltoes 13.3895
74
root -8.71318 16.8844 -13.2236 -2.55772 -5.26195 6.33536
lowerback 6.22839 -0.364392 -6.84623
upperback -0.433059 -0.978246 0.54775
thorax -3.82942 -0.340413 4.51265
lowerneck -16.0666 -2.654 -9.70936
upperneck 20.8079 -2.43274 5.4274
head 9.40641 -1.31133 3.18733
rclavicle 9.74511e-016 -1.51076e-014
rhumerus -35.271 -15.3188 -77.163
rradius 29.1655
rwrist 10.0059
rhand -12.9606 14.2118
rfingers 7.12502
rthumb 13.1312 -15.3548
lclavicle 9.74511e-016 -1.51076e-014
lhumerus -32.4902 5.55978 85.5016
lradius 30.7318
lwrist -1.87456
lhand -12.2439 23.9051
lfingers 7.12502
lthumb 13.822 53.4258
rfemur -33.6509 -3.67492 12.1782
rtibia 58.8698
rfoot -9.84054 -11.5704
rtoes -1.28741
lfemur -8.57837 -4.75066 -35.5495
ltibia 35.7738
lfoot -19.7011 -4.12721
ltoes 13.0238
75
root -8.70413 16.9001 -12.9716 -2.25664 -5.19044 6.33186
lowerback 5.84631 -0.487234 -6.92018
upperback -0.469447 -1.11535 0.650691
thorax -3.63116 -0.412469 4.66724
lowerneck -16.2175 -2.62323 -9.86648
upperneck 20.9034 -2.34677 5.47894
head 9.46348 -1.27786 3.24437
rclavicle 2.57535e-014 6.36111e-015
rhumerus -35.6503 -14.8526 -77.209
rradius 29.3169
rwrist 9.81216
rhand -13.1335 13.8498
rfingers 7.12502
rthumb 12.9645 -15.7275
lclavicle 2.57535e-014 6.36111e-015
lhumerus -32.0811 4.81238 85.732
lradius 32.6659
lwrist 1.98827
lhand -11.1062 30.2664
lfingers 7.12502
lthumb 14.9182 59.7092
rfemur -34.4777 -3.2968 12.2087
rtibia 55.7543
rfoot -9.05352 -11.965
rtoes -0.221445
lfemur -7.3817 -4.95861 -35.782
ltibia 34.7522
lfoot -20.016 -3.80551
ltoes 12.4093
76
root -8.69663 16.8995 -12.7248 -1.91054 -5.1253 6.49471
lowerback 5.50144 -0.59509 -7.19271
upperback -0.630099 -1.25445 0.712838
thorax -3.58015 -0.473168 4.89248
lowerneck -16.0087 -2.52955 -9.97084
upperneck 20.8781 -2.20472 5.45622
head 9.40508 -1.22485 3.27193
rclavicle -2.54314e-014 1.59028e-014
rhumerus -36.1367 -14.6183 -77.1073
rradius 29.4311
rwrist 9.70099
rhand -12.9381 13.7548
rfingers 7.12502
rthumb 13.1528 -15.8104
lclavicle -2.54314e-014 1.59028e-014
lhumerus -31.9284 4.75713 85.5696
lradius 32.5072
lwrist 0.843607
lhand -13.3716 26.0731
lfingers 7.12502
lthumb 12.735 55.6648
rfemur -35.3307 -2.90674 12.0143
rtibia 52.5114
rfoot -7.69033 -12.2549
rtoes 1.55292
lfemur -6.21371 -5.22021 -36.2091
ltibia 33.6861
lfoot -20.2702 -3.42055
ltoes 11.8528
